<mxfile host="Electron" modified="2024-04-02T10:50:41.672Z" agent="Mozilla/5.0 (Windows NT 10.0; Win64; x64) AppleWebKit/537.36 (KHTML, like Gecko) draw.io/22.0.3 Chrome/114.0.5735.289 Electron/25.8.4 Safari/537.36" etag="0R3sAniJmoafg_L3Qigs" version="22.0.3" type="device">
  <diagram name="Page-1" id="gsfR2lPIybh8ACA6FocS">
    <mxGraphModel dx="819" dy="502" grid="1" gridSize="1" guides="1" tooltips="1" connect="1" arrows="1" fold="1" page="1" pageScale="1" pageWidth="425" pageHeight="338" background="none" math="1" shadow="0">
      <root>
        <mxCell id="0" />
        <mxCell id="1" value="layer00" style="" parent="0" visible="0" />
        <mxCell id="pE25U7qzZSWqS1JLdzmI-1" value="$$z_{G_1}$$" style="rounded=0;whiteSpace=wrap;html=1;fillColor=#f5f5f5;fontColor=#333333;strokeColor=#666666;" vertex="1" parent="1">
          <mxGeometry x="24" y="20" width="56" height="32" as="geometry" />
        </mxCell>
        <mxCell id="pE25U7qzZSWqS1JLdzmI-2" value="$$z_{G_2}$$" style="rounded=0;whiteSpace=wrap;html=1;fillColor=#f5f5f5;fontColor=#333333;strokeColor=#666666;" vertex="1" parent="1">
          <mxGeometry x="24" y="56" width="144" height="32" as="geometry" />
        </mxCell>
        <mxCell id="pE25U7qzZSWqS1JLdzmI-3" value="$$z_{G_3}$$" style="rounded=0;whiteSpace=wrap;html=1;fillColor=#f5f5f5;fontColor=#333333;strokeColor=#666666;" vertex="1" parent="1">
          <mxGeometry x="24" y="96" width="40" height="32" as="geometry" />
        </mxCell>
        <mxCell id="pE25U7qzZSWqS1JLdzmI-4" value="$$z_{G_4}$$" style="rounded=0;whiteSpace=wrap;html=1;fillColor=#f5f5f5;fontColor=#333333;strokeColor=#666666;" vertex="1" parent="1">
          <mxGeometry x="24" y="132" width="329" height="32" as="geometry" />
        </mxCell>
        <mxCell id="pE25U7qzZSWqS1JLdzmI-5" value="$$z_{G_5}$$" style="rounded=0;whiteSpace=wrap;html=1;fillColor=#f5f5f5;fontColor=#333333;strokeColor=#666666;" vertex="1" parent="1">
          <mxGeometry x="24" y="168" width="100" height="32" as="geometry" />
        </mxCell>
        <mxCell id="pE25U7qzZSWqS1JLdzmI-6" value="$$z_{G_6}$$" style="rounded=0;whiteSpace=wrap;html=1;fillColor=#f5f5f5;fontColor=#333333;strokeColor=#666666;" vertex="1" parent="1">
          <mxGeometry x="24" y="204" width="196" height="32" as="geometry" />
        </mxCell>
        <mxCell id="pE25U7qzZSWqS1JLdzmI-7" value="$$z_{G_k}$$" style="rounded=0;whiteSpace=wrap;html=1;fillColor=#f5f5f5;fontColor=#333333;strokeColor=#666666;" vertex="1" parent="1">
          <mxGeometry x="24" y="297" width="329" height="32" as="geometry" />
        </mxCell>
        <mxCell id="pE25U7qzZSWqS1JLdzmI-69" value="&lt;font face=&quot;Microsoft Sans Serif&quot;&gt;sort values&lt;/font&gt;" style="text;html=1;align=center;verticalAlign=middle;resizable=0;points=[];autosize=1;strokeColor=none;fillColor=none;" vertex="1" parent="1">
          <mxGeometry x="323" y="16" width="77" height="27" as="geometry" />
        </mxCell>
        <mxCell id="pE25U7qzZSWqS1JLdzmI-8" value="layer01" style="" parent="0" visible="0" />
        <mxCell id="pE25U7qzZSWqS1JLdzmI-9" value="$$z_{G_1}$$" style="rounded=0;whiteSpace=wrap;html=1;fillColor=#f5f5f5;fontColor=#333333;strokeColor=#666666;" vertex="1" parent="pE25U7qzZSWqS1JLdzmI-8">
          <mxGeometry x="24" y="56" width="56" height="32" as="geometry" />
        </mxCell>
        <mxCell id="pE25U7qzZSWqS1JLdzmI-10" value="$$z_{G_2}$$" style="rounded=0;whiteSpace=wrap;html=1;fillColor=#f5f5f5;fontColor=#333333;strokeColor=#666666;" vertex="1" parent="pE25U7qzZSWqS1JLdzmI-8">
          <mxGeometry x="24" y="136" width="144" height="32" as="geometry" />
        </mxCell>
        <mxCell id="pE25U7qzZSWqS1JLdzmI-11" value="$$z_{G_3}$$" style="rounded=0;whiteSpace=wrap;html=1;fillColor=#f5f5f5;fontColor=#333333;strokeColor=#666666;" vertex="1" parent="pE25U7qzZSWqS1JLdzmI-8">
          <mxGeometry x="24" y="20" width="40" height="32" as="geometry" />
        </mxCell>
        <mxCell id="pE25U7qzZSWqS1JLdzmI-12" value="$$z_{G_4}$$" style="rounded=0;whiteSpace=wrap;html=1;fillColor=#f5f5f5;fontColor=#333333;strokeColor=#666666;" vertex="1" parent="pE25U7qzZSWqS1JLdzmI-8">
          <mxGeometry x="24" y="256" width="329" height="32" as="geometry" />
        </mxCell>
        <mxCell id="pE25U7qzZSWqS1JLdzmI-13" value="$$z_{G_5}$$" style="rounded=0;whiteSpace=wrap;html=1;fillColor=#f5f5f5;fontColor=#333333;strokeColor=#666666;" vertex="1" parent="pE25U7qzZSWqS1JLdzmI-8">
          <mxGeometry x="24" y="96" width="100" height="32" as="geometry" />
        </mxCell>
        <mxCell id="pE25U7qzZSWqS1JLdzmI-14" value="$$z_{G_6}$$" style="rounded=0;whiteSpace=wrap;html=1;fillColor=#f5f5f5;fontColor=#333333;strokeColor=#666666;" vertex="1" parent="pE25U7qzZSWqS1JLdzmI-8">
          <mxGeometry x="24" y="176" width="196" height="32" as="geometry" />
        </mxCell>
        <mxCell id="pE25U7qzZSWqS1JLdzmI-15" value="$$z_{G_k}$$" style="rounded=0;whiteSpace=wrap;html=1;fillColor=#f5f5f5;fontColor=#333333;strokeColor=#666666;" vertex="1" parent="pE25U7qzZSWqS1JLdzmI-8">
          <mxGeometry x="24" y="297" width="329" height="32" as="geometry" />
        </mxCell>
        <mxCell id="pE25U7qzZSWqS1JLdzmI-23" value="layer02" parent="0" />
        <mxCell id="pE25U7qzZSWqS1JLdzmI-34" value="$$z_{G_1}$$" style="rounded=0;whiteSpace=wrap;html=1;fillColor=#f8cecc;strokeColor=#b85450;" vertex="1" parent="pE25U7qzZSWqS1JLdzmI-23">
          <mxGeometry x="24" y="56" width="56" height="32" as="geometry" />
        </mxCell>
        <mxCell id="pE25U7qzZSWqS1JLdzmI-35" value="$$z_{G_2}$$" style="rounded=0;whiteSpace=wrap;html=1;fillColor=#f8cecc;strokeColor=#b85450;" vertex="1" parent="pE25U7qzZSWqS1JLdzmI-23">
          <mxGeometry x="24" y="136" width="144" height="32" as="geometry" />
        </mxCell>
        <mxCell id="pE25U7qzZSWqS1JLdzmI-36" value="$$z_{G_3}$$" style="rounded=0;whiteSpace=wrap;html=1;fillColor=#d5e8d4;strokeColor=#82b366;" vertex="1" parent="pE25U7qzZSWqS1JLdzmI-23">
          <mxGeometry x="24" y="20" width="40" height="32" as="geometry" />
        </mxCell>
        <mxCell id="pE25U7qzZSWqS1JLdzmI-37" value="$$z_{G_4}$$" style="rounded=0;whiteSpace=wrap;html=1;fillColor=#f8cecc;strokeColor=#b85450;" vertex="1" parent="pE25U7qzZSWqS1JLdzmI-23">
          <mxGeometry x="24" y="256" width="329" height="32" as="geometry" />
        </mxCell>
        <mxCell id="pE25U7qzZSWqS1JLdzmI-38" value="$$z_{G_5}$$" style="rounded=0;whiteSpace=wrap;html=1;fillColor=#f8cecc;strokeColor=#b85450;" vertex="1" parent="pE25U7qzZSWqS1JLdzmI-23">
          <mxGeometry x="24" y="96" width="100" height="32" as="geometry" />
        </mxCell>
        <mxCell id="pE25U7qzZSWqS1JLdzmI-39" value="$$z_{G_6}$$" style="rounded=0;whiteSpace=wrap;html=1;fillColor=#f8cecc;strokeColor=#b85450;" vertex="1" parent="pE25U7qzZSWqS1JLdzmI-23">
          <mxGeometry x="24" y="176" width="196" height="32" as="geometry" />
        </mxCell>
        <mxCell id="pE25U7qzZSWqS1JLdzmI-40" value="$$z_{G_k}$$" style="rounded=0;whiteSpace=wrap;html=1;fillColor=#f8cecc;strokeColor=#b85450;" vertex="1" parent="pE25U7qzZSWqS1JLdzmI-23">
          <mxGeometry x="24" y="297" width="329" height="32" as="geometry" />
        </mxCell>
        <mxCell id="pE25U7qzZSWqS1JLdzmI-70" value="$$\alpha = z_{G_3}$$" style="text;html=1;align=center;verticalAlign=middle;resizable=0;points=[];autosize=1;strokeColor=none;fillColor=none;fontColor=#82b366;" vertex="1" parent="pE25U7qzZSWqS1JLdzmI-23">
          <mxGeometry x="280" y="24" width="135" height="27" as="geometry" />
        </mxCell>
        <mxCell id="pE25U7qzZSWqS1JLdzmI-73" value="$$z_{G_3} \leq \alpha$$" style="text;html=1;align=center;verticalAlign=middle;resizable=0;points=[];autosize=1;strokeColor=none;fillColor=none;fontColor=#82b366;" vertex="1" parent="pE25U7qzZSWqS1JLdzmI-23">
          <mxGeometry x="204" y="24" width="148" height="27" as="geometry" />
        </mxCell>
        <mxCell id="pE25U7qzZSWqS1JLdzmI-74" value="$$z_{G_1} &amp;gt; \alpha$$" style="text;html=1;align=center;verticalAlign=middle;resizable=0;points=[];autosize=1;strokeColor=none;fillColor=none;fontColor=#b85450;" vertex="1" parent="pE25U7qzZSWqS1JLdzmI-23">
          <mxGeometry x="209" y="58" width="135" height="27" as="geometry" />
        </mxCell>
        <mxCell id="pE25U7qzZSWqS1JLdzmI-75" value="$$z_{G_5} &amp;gt; \alpha$$" style="text;html=1;align=center;verticalAlign=middle;resizable=0;points=[];autosize=1;strokeColor=none;fillColor=none;fontColor=#b85450;" vertex="1" parent="pE25U7qzZSWqS1JLdzmI-23">
          <mxGeometry x="211" y="97" width="135" height="27" as="geometry" />
        </mxCell>
        <mxCell id="pE25U7qzZSWqS1JLdzmI-76" value="$$z_{G_2} &amp;gt; \alpha$$" style="text;html=1;align=center;verticalAlign=middle;resizable=0;points=[];autosize=1;strokeColor=none;fillColor=none;fontColor=#b85450;" vertex="1" parent="pE25U7qzZSWqS1JLdzmI-23">
          <mxGeometry x="212" y="137" width="135" height="27" as="geometry" />
        </mxCell>
        <mxCell id="pE25U7qzZSWqS1JLdzmI-77" value="$$z_{G_6} &amp;gt; \alpha$$" style="text;html=1;align=center;verticalAlign=middle;resizable=0;points=[];autosize=1;strokeColor=none;fillColor=none;fontColor=#b85450;" vertex="1" parent="pE25U7qzZSWqS1JLdzmI-23">
          <mxGeometry x="213" y="176" width="135" height="27" as="geometry" />
        </mxCell>
        <mxCell id="pE25U7qzZSWqS1JLdzmI-78" value="$$\alpha = z_{G_3}$$" style="text;html=1;align=center;verticalAlign=middle;resizable=0;points=[];autosize=1;strokeColor=none;fillColor=none;fontColor=#82b366;" vertex="1" parent="pE25U7qzZSWqS1JLdzmI-23">
          <mxGeometry x="280" y="24" width="135" height="27" as="geometry" />
        </mxCell>
        <mxCell id="pE25U7qzZSWqS1JLdzmI-79" value="$$z_{G_3} \leq \alpha$$" style="text;html=1;align=center;verticalAlign=middle;resizable=0;points=[];autosize=1;strokeColor=none;fillColor=none;fontColor=#82b366;" vertex="1" parent="pE25U7qzZSWqS1JLdzmI-23">
          <mxGeometry x="204" y="24" width="148" height="27" as="geometry" />
        </mxCell>
        <mxCell id="pE25U7qzZSWqS1JLdzmI-80" value="$$z_{G_1} &amp;gt; \alpha$$" style="text;html=1;align=center;verticalAlign=middle;resizable=0;points=[];autosize=1;strokeColor=none;fillColor=none;fontColor=#b85450;" vertex="1" parent="pE25U7qzZSWqS1JLdzmI-23">
          <mxGeometry x="592" y="72" width="135" height="27" as="geometry" />
        </mxCell>
        <mxCell id="pE25U7qzZSWqS1JLdzmI-81" value="$$z_{G_5} &amp;gt; \alpha$$" style="text;html=1;align=center;verticalAlign=middle;resizable=0;points=[];autosize=1;strokeColor=none;fillColor=none;fontColor=#b85450;" vertex="1" parent="pE25U7qzZSWqS1JLdzmI-23">
          <mxGeometry x="211" y="97" width="135" height="27" as="geometry" />
        </mxCell>
        <mxCell id="pE25U7qzZSWqS1JLdzmI-82" value="$$z_{G_2} &amp;gt; \alpha$$" style="text;html=1;align=center;verticalAlign=middle;resizable=0;points=[];autosize=1;strokeColor=none;fillColor=none;fontColor=#b85450;" vertex="1" parent="pE25U7qzZSWqS1JLdzmI-23">
          <mxGeometry x="212" y="137" width="135" height="27" as="geometry" />
        </mxCell>
        <mxCell id="pE25U7qzZSWqS1JLdzmI-83" value="$$z_{G_6} &amp;gt; \alpha$$" style="text;html=1;align=center;verticalAlign=middle;resizable=0;points=[];autosize=1;strokeColor=none;fillColor=none;fontColor=#b85450;" vertex="1" parent="pE25U7qzZSWqS1JLdzmI-23">
          <mxGeometry x="213" y="176" width="135" height="27" as="geometry" />
        </mxCell>
        <mxCell id="pE25U7qzZSWqS1JLdzmI-31" value="layer03" style="" parent="0" visible="0" />
        <mxCell id="pE25U7qzZSWqS1JLdzmI-24" value="$$z_{G_1}$$" style="rounded=0;whiteSpace=wrap;html=1;fillColor=#f8cecc;strokeColor=#b85450;" vertex="1" parent="pE25U7qzZSWqS1JLdzmI-31">
          <mxGeometry x="24" y="56" width="56" height="32" as="geometry" />
        </mxCell>
        <mxCell id="pE25U7qzZSWqS1JLdzmI-25" value="$$z_{G_2}$$" style="rounded=0;whiteSpace=wrap;html=1;fillColor=#f8cecc;strokeColor=#b85450;" vertex="1" parent="pE25U7qzZSWqS1JLdzmI-31">
          <mxGeometry x="24" y="136" width="144" height="32" as="geometry" />
        </mxCell>
        <mxCell id="pE25U7qzZSWqS1JLdzmI-26" value="$$z_{G_3}$$" style="rounded=0;whiteSpace=wrap;html=1;fillColor=#d5e8d4;strokeColor=#82b366;" vertex="1" parent="pE25U7qzZSWqS1JLdzmI-31">
          <mxGeometry x="24" y="20" width="40" height="32" as="geometry" />
        </mxCell>
        <mxCell id="pE25U7qzZSWqS1JLdzmI-27" value="$$z_{G_4}$$" style="rounded=0;whiteSpace=wrap;html=1;fillColor=#f8cecc;strokeColor=#b85450;" vertex="1" parent="pE25U7qzZSWqS1JLdzmI-31">
          <mxGeometry x="24" y="256" width="329" height="32" as="geometry" />
        </mxCell>
        <mxCell id="pE25U7qzZSWqS1JLdzmI-28" value="$$z_{G_5}$$" style="rounded=0;whiteSpace=wrap;html=1;fillColor=#f8cecc;strokeColor=#b85450;" vertex="1" parent="pE25U7qzZSWqS1JLdzmI-31">
          <mxGeometry x="24" y="96" width="100" height="32" as="geometry" />
        </mxCell>
        <mxCell id="pE25U7qzZSWqS1JLdzmI-29" value="$$z_{G_6}$$" style="rounded=0;whiteSpace=wrap;html=1;fillColor=#f8cecc;strokeColor=#b85450;" vertex="1" parent="pE25U7qzZSWqS1JLdzmI-31">
          <mxGeometry x="24" y="176" width="196" height="32" as="geometry" />
        </mxCell>
        <mxCell id="pE25U7qzZSWqS1JLdzmI-30" value="$$z_{G_k}$$" style="rounded=0;whiteSpace=wrap;html=1;fillColor=#f8cecc;strokeColor=#b85450;" vertex="1" parent="pE25U7qzZSWqS1JLdzmI-31">
          <mxGeometry x="24" y="297" width="329" height="32" as="geometry" />
        </mxCell>
        <mxCell id="pE25U7qzZSWqS1JLdzmI-41" value="$$z_{G_1}$$" style="rounded=0;whiteSpace=wrap;html=1;fillColor=#d5e8d4;strokeColor=#82b366;" vertex="1" parent="pE25U7qzZSWqS1JLdzmI-31">
          <mxGeometry x="24" y="56" width="56" height="32" as="geometry" />
        </mxCell>
        <mxCell id="pE25U7qzZSWqS1JLdzmI-42" value="$$z_{G_2}$$" style="rounded=0;whiteSpace=wrap;html=1;fillColor=#f8cecc;strokeColor=#b85450;" vertex="1" parent="pE25U7qzZSWqS1JLdzmI-31">
          <mxGeometry x="24" y="136" width="144" height="32" as="geometry" />
        </mxCell>
        <mxCell id="pE25U7qzZSWqS1JLdzmI-43" value="$$z_{G_3}$$" style="rounded=0;whiteSpace=wrap;html=1;fillColor=#d5e8d4;strokeColor=#82b366;" vertex="1" parent="pE25U7qzZSWqS1JLdzmI-31">
          <mxGeometry x="24" y="20" width="40" height="32" as="geometry" />
        </mxCell>
        <mxCell id="pE25U7qzZSWqS1JLdzmI-44" value="$$z_{G_4}$$" style="rounded=0;whiteSpace=wrap;html=1;fillColor=#f8cecc;strokeColor=#b85450;" vertex="1" parent="pE25U7qzZSWqS1JLdzmI-31">
          <mxGeometry x="24" y="256" width="329" height="32" as="geometry" />
        </mxCell>
        <mxCell id="pE25U7qzZSWqS1JLdzmI-45" value="$$z_{G_5}$$" style="rounded=0;whiteSpace=wrap;html=1;fillColor=#f8cecc;strokeColor=#b85450;" vertex="1" parent="pE25U7qzZSWqS1JLdzmI-31">
          <mxGeometry x="24" y="96" width="100" height="32" as="geometry" />
        </mxCell>
        <mxCell id="pE25U7qzZSWqS1JLdzmI-46" value="$$z_{G_6}$$" style="rounded=0;whiteSpace=wrap;html=1;fillColor=#f8cecc;strokeColor=#b85450;" vertex="1" parent="pE25U7qzZSWqS1JLdzmI-31">
          <mxGeometry x="24" y="176" width="196" height="32" as="geometry" />
        </mxCell>
        <mxCell id="pE25U7qzZSWqS1JLdzmI-47" value="$$z_{G_k}$$" style="rounded=0;whiteSpace=wrap;html=1;fillColor=#f8cecc;strokeColor=#b85450;" vertex="1" parent="pE25U7qzZSWqS1JLdzmI-31">
          <mxGeometry x="24" y="297" width="329" height="32" as="geometry" />
        </mxCell>
        <mxCell id="pE25U7qzZSWqS1JLdzmI-84" value="$$z_{G_3} \leq \alpha$$" style="text;html=1;align=center;verticalAlign=middle;resizable=0;points=[];autosize=1;strokeColor=none;fillColor=none;fontColor=#82b366;" vertex="1" parent="pE25U7qzZSWqS1JLdzmI-31">
          <mxGeometry x="204" y="24" width="148" height="27" as="geometry" />
        </mxCell>
        <mxCell id="pE25U7qzZSWqS1JLdzmI-85" value="$$z_{G_1} \leq \alpha$$" style="text;html=1;align=center;verticalAlign=middle;resizable=0;points=[];autosize=1;strokeColor=none;fillColor=none;fontColor=#82b366;labelBackgroundColor=default;" vertex="1" parent="pE25U7qzZSWqS1JLdzmI-31">
          <mxGeometry x="203" y="58" width="148" height="27" as="geometry" />
        </mxCell>
        <mxCell id="pE25U7qzZSWqS1JLdzmI-86" value="$$z_{G_5} &amp;gt; \alpha$$" style="text;html=1;align=center;verticalAlign=middle;resizable=0;points=[];autosize=1;strokeColor=none;fillColor=none;fontColor=#b85450;" vertex="1" parent="pE25U7qzZSWqS1JLdzmI-31">
          <mxGeometry x="211" y="97" width="135" height="27" as="geometry" />
        </mxCell>
        <mxCell id="pE25U7qzZSWqS1JLdzmI-87" value="$$z_{G_2} &amp;gt; \alpha$$" style="text;html=1;align=center;verticalAlign=middle;resizable=0;points=[];autosize=1;strokeColor=none;fillColor=none;fontColor=#b85450;" vertex="1" parent="pE25U7qzZSWqS1JLdzmI-31">
          <mxGeometry x="212" y="137" width="135" height="27" as="geometry" />
        </mxCell>
        <mxCell id="pE25U7qzZSWqS1JLdzmI-88" value="$$z_{G_6} &amp;gt; \alpha$$" style="text;html=1;align=center;verticalAlign=middle;resizable=0;points=[];autosize=1;strokeColor=none;fillColor=none;fontColor=#b85450;" vertex="1" parent="pE25U7qzZSWqS1JLdzmI-31">
          <mxGeometry x="213" y="176" width="135" height="27" as="geometry" />
        </mxCell>
        <mxCell id="pE25U7qzZSWqS1JLdzmI-89" value="$$\alpha = z_{G_1}$$" style="text;html=1;align=center;verticalAlign=middle;resizable=0;points=[];autosize=1;strokeColor=none;fillColor=none;fontColor=#82b366;" vertex="1" parent="pE25U7qzZSWqS1JLdzmI-31">
          <mxGeometry x="280" y="24" width="135" height="27" as="geometry" />
        </mxCell>
        <mxCell id="pE25U7qzZSWqS1JLdzmI-101" value="$$z_{G_6} &amp;gt; \alpha$$" style="text;html=1;align=center;verticalAlign=middle;resizable=0;points=[];autosize=1;strokeColor=none;fillColor=none;fontColor=#b85450;" vertex="1" parent="pE25U7qzZSWqS1JLdzmI-31">
          <mxGeometry x="213" y="176" width="135" height="27" as="geometry" />
        </mxCell>
        <mxCell id="pE25U7qzZSWqS1JLdzmI-32" value="layer04" parent="0" visible="0" />
        <mxCell id="pE25U7qzZSWqS1JLdzmI-55" value="$$z_{G_1}$$" style="rounded=0;whiteSpace=wrap;html=1;fillColor=#d5e8d4;strokeColor=#82b366;" vertex="1" parent="pE25U7qzZSWqS1JLdzmI-32">
          <mxGeometry x="24" y="56" width="56" height="32" as="geometry" />
        </mxCell>
        <mxCell id="pE25U7qzZSWqS1JLdzmI-56" value="$$z_{G_2}$$" style="rounded=0;whiteSpace=wrap;html=1;fillColor=#f8cecc;strokeColor=#b85450;" vertex="1" parent="pE25U7qzZSWqS1JLdzmI-32">
          <mxGeometry x="24" y="136" width="144" height="32" as="geometry" />
        </mxCell>
        <mxCell id="pE25U7qzZSWqS1JLdzmI-57" value="$$z_{G_3}$$" style="rounded=0;whiteSpace=wrap;html=1;fillColor=#d5e8d4;strokeColor=#82b366;" vertex="1" parent="pE25U7qzZSWqS1JLdzmI-32">
          <mxGeometry x="24" y="20" width="40" height="32" as="geometry" />
        </mxCell>
        <mxCell id="pE25U7qzZSWqS1JLdzmI-58" value="$$z_{G_4}$$" style="rounded=0;whiteSpace=wrap;html=1;fillColor=#f8cecc;strokeColor=#b85450;" vertex="1" parent="pE25U7qzZSWqS1JLdzmI-32">
          <mxGeometry x="24" y="256" width="329" height="32" as="geometry" />
        </mxCell>
        <mxCell id="pE25U7qzZSWqS1JLdzmI-59" value="$$z_{G_5}$$" style="rounded=0;whiteSpace=wrap;html=1;fillColor=#d5e8d4;strokeColor=#82b366;" vertex="1" parent="pE25U7qzZSWqS1JLdzmI-32">
          <mxGeometry x="24" y="96" width="100" height="32" as="geometry" />
        </mxCell>
        <mxCell id="pE25U7qzZSWqS1JLdzmI-60" value="$$z_{G_6}$$" style="rounded=0;whiteSpace=wrap;html=1;fillColor=#f8cecc;strokeColor=#b85450;" vertex="1" parent="pE25U7qzZSWqS1JLdzmI-32">
          <mxGeometry x="24" y="176" width="196" height="32" as="geometry" />
        </mxCell>
        <mxCell id="pE25U7qzZSWqS1JLdzmI-61" value="$$z_{G_k}$$" style="rounded=0;whiteSpace=wrap;html=1;fillColor=#f8cecc;strokeColor=#b85450;" vertex="1" parent="pE25U7qzZSWqS1JLdzmI-32">
          <mxGeometry x="24" y="297" width="329" height="32" as="geometry" />
        </mxCell>
        <mxCell id="pE25U7qzZSWqS1JLdzmI-103" value="$$z_{G_3} \leq \alpha$$" style="text;html=1;align=center;verticalAlign=middle;resizable=0;points=[];autosize=1;strokeColor=none;fillColor=none;fontColor=#82b366;" vertex="1" parent="pE25U7qzZSWqS1JLdzmI-32">
          <mxGeometry x="204" y="24" width="148" height="27" as="geometry" />
        </mxCell>
        <mxCell id="pE25U7qzZSWqS1JLdzmI-104" value="$$z_{G_1} \leq \alpha$$" style="text;html=1;align=center;verticalAlign=middle;resizable=0;points=[];autosize=1;strokeColor=none;fillColor=none;fontColor=#82b366;labelBackgroundColor=default;" vertex="1" parent="pE25U7qzZSWqS1JLdzmI-32">
          <mxGeometry x="203" y="58" width="148" height="27" as="geometry" />
        </mxCell>
        <mxCell id="pE25U7qzZSWqS1JLdzmI-105" value="$$z_{G_5} \leq \alpha$$" style="text;html=1;align=center;verticalAlign=middle;resizable=0;points=[];autosize=1;strokeColor=none;fillColor=none;fontColor=#82b366;" vertex="1" parent="pE25U7qzZSWqS1JLdzmI-32">
          <mxGeometry x="205" y="97" width="148" height="27" as="geometry" />
        </mxCell>
        <mxCell id="pE25U7qzZSWqS1JLdzmI-106" value="$$z_{G_2} &amp;gt; \alpha$$" style="text;html=1;align=center;verticalAlign=middle;resizable=0;points=[];autosize=1;strokeColor=none;fillColor=none;fontColor=#b85450;" vertex="1" parent="pE25U7qzZSWqS1JLdzmI-32">
          <mxGeometry x="212" y="137" width="135" height="27" as="geometry" />
        </mxCell>
        <mxCell id="pE25U7qzZSWqS1JLdzmI-107" value="$$\alpha = z_{G_5}$$" style="text;html=1;align=center;verticalAlign=middle;resizable=0;points=[];autosize=1;strokeColor=none;fillColor=none;fontColor=#82b366;" vertex="1" parent="pE25U7qzZSWqS1JLdzmI-32">
          <mxGeometry x="280" y="24" width="135" height="27" as="geometry" />
        </mxCell>
        <mxCell id="pE25U7qzZSWqS1JLdzmI-108" value="$$z_{G_6} &amp;gt; \alpha$$" style="text;html=1;align=center;verticalAlign=middle;resizable=0;points=[];autosize=1;strokeColor=none;fillColor=none;fontColor=#b85450;" vertex="1" parent="pE25U7qzZSWqS1JLdzmI-32">
          <mxGeometry x="213" y="176" width="135" height="27" as="geometry" />
        </mxCell>
        <mxCell id="pE25U7qzZSWqS1JLdzmI-33" value="layer05" parent="0" visible="0" />
        <mxCell id="pE25U7qzZSWqS1JLdzmI-62" value="$$z_{G_1}$$" style="rounded=0;whiteSpace=wrap;html=1;fillColor=#d5e8d4;strokeColor=#82b366;" vertex="1" parent="pE25U7qzZSWqS1JLdzmI-33">
          <mxGeometry x="24" y="56" width="56" height="32" as="geometry" />
        </mxCell>
        <mxCell id="pE25U7qzZSWqS1JLdzmI-63" value="$$z_{G_2}$$" style="rounded=0;whiteSpace=wrap;html=1;fillColor=#d5e8d4;strokeColor=#82b366;" vertex="1" parent="pE25U7qzZSWqS1JLdzmI-33">
          <mxGeometry x="24" y="136" width="144" height="32" as="geometry" />
        </mxCell>
        <mxCell id="pE25U7qzZSWqS1JLdzmI-64" value="$$z_{G_3}$$" style="rounded=0;whiteSpace=wrap;html=1;fillColor=#d5e8d4;strokeColor=#82b366;" vertex="1" parent="pE25U7qzZSWqS1JLdzmI-33">
          <mxGeometry x="24" y="20" width="40" height="32" as="geometry" />
        </mxCell>
        <mxCell id="pE25U7qzZSWqS1JLdzmI-65" value="$$z_{G_4}$$" style="rounded=0;whiteSpace=wrap;html=1;fillColor=#f8cecc;strokeColor=#b85450;" vertex="1" parent="pE25U7qzZSWqS1JLdzmI-33">
          <mxGeometry x="24" y="256" width="329" height="32" as="geometry" />
        </mxCell>
        <mxCell id="pE25U7qzZSWqS1JLdzmI-66" value="$$z_{G_5}$$" style="rounded=0;whiteSpace=wrap;html=1;fillColor=#d5e8d4;strokeColor=#82b366;" vertex="1" parent="pE25U7qzZSWqS1JLdzmI-33">
          <mxGeometry x="24" y="96" width="100" height="32" as="geometry" />
        </mxCell>
        <mxCell id="pE25U7qzZSWqS1JLdzmI-67" value="$$z_{G_6}$$" style="rounded=0;whiteSpace=wrap;html=1;fillColor=#f8cecc;strokeColor=#b85450;" vertex="1" parent="pE25U7qzZSWqS1JLdzmI-33">
          <mxGeometry x="24" y="176" width="196" height="32" as="geometry" />
        </mxCell>
        <mxCell id="pE25U7qzZSWqS1JLdzmI-68" value="$$z_{G_k}$$" style="rounded=0;whiteSpace=wrap;html=1;fillColor=#f8cecc;strokeColor=#b85450;" vertex="1" parent="pE25U7qzZSWqS1JLdzmI-33">
          <mxGeometry x="24" y="297" width="329" height="32" as="geometry" />
        </mxCell>
      </root>
    </mxGraphModel>
  </diagram>
</mxfile>
